<?xml version="1.0" encoding="UTF-8"?> <svg xmlns="http://www.w3.org/2000/svg" id="Layer_1" data-name="Layer 1" viewBox="0 0 377.36 106.29"><defs><style>.cls-1{fill:#d41c2c;}.cls-2{fill:#808181;}.cls-3{fill:#1d1d1b;}</style></defs><title>logo</title><path class="cls-1" d="M337.33,310.3c-5.95-8.1-11.72-16.35-17.95-24.23-5.95-7.54-12.67-14.38-21.3-19-8.27-4.41-16.73-5.19-25.49-1.38s-15.9,10.14-21.76,17.55c-7.1,9-13.58,18.43-20.36,27.66l7.22,6.24c.94-1.27,1.88-2.53,2.84-3.78,3.5-4.53,6.59-9.37,10-13.94,5.67-7.52,11.5-14.93,19.18-20.59,4-2.94,8.22-5.29,13.4-5.5,6-.24,10.78,2.4,15.25,5.82,9.15,7,15.85,16.25,22.58,25.43,2.89,3.94,5.66,8,8.58,12.1l3.84-3c.17,1.74.3,3.07.53,5.36,1.68-1.37,3.11-2.13,4-3.32C339.18,314,338.57,312,337.33,310.3Z" transform="translate(-131.85 -263.26)"></path><path class="cls-2" d="M238.2,310.81a6,6,0,0,0-3.78-2.31l-.37,5.47-.08-.07-3.47-3-.12.17a4.59,4.59,0,0,0-.33.44c-.13.19-.27.37-.41.56-6.31,8.55-12.4,17.31-19.22,25.45a78.84,78.84,0,0,1-14.1,12.82c-6.68,4.85-14.1,5.31-21.52,1.15a45.09,45.09,0,0,1-13.31-11.12c-6.89-8.62-13.52-17.45-20.2-26.23-2.1-2.77-2-2.83-4.93-1a25.29,25.29,0,0,1-3.12,1.94c-1.86.84-1.63,1.84-.62,3.23,3.42,4.69,6.68,9.5,10.17,14.14,7.11,9.43,14.35,18.78,24.39,25.37,8.28,5.43,17.11,7.63,26.82,4.12,7.43-2.69,13.37-7.52,18.83-13,9.06-9.11,17.33-21.49,24.86-31.81C238.78,315.69,239.75,313.09,238.2,310.81Z" transform="translate(-131.85 -263.26)"></path><path class="cls-3" d="M253.45,324.47h7.44V359.9h-7.44Z" transform="translate(-131.85 -263.26)"></path><path class="cls-3" d="M287.34,336.67c2.14,1.89,3.2,4.75,3.2,8.57V359.9h-7v-3.2q-2.1,3.58-7.83,3.58a12.29,12.29,0,0,1-5.13-1,7.68,7.68,0,0,1-3.32-2.77,7.25,7.25,0,0,1-1.14-4,6.72,6.72,0,0,1,2.69-5.64c1.8-1.36,4.58-2.05,8.33-2.05h5.93a4.78,4.78,0,0,0-1.48-3.75,6.57,6.57,0,0,0-4.45-1.31,13,13,0,0,0-4,.64,10.64,10.64,0,0,0-3.37,1.75l-2.67-5.21a16.24,16.24,0,0,1,5-2.29,22.62,22.62,0,0,1,6-.81Q284.15,333.83,287.34,336.67ZM281,354.38a4.85,4.85,0,0,0,2.11-2.6v-2.63H278c-3.06,0-4.59,1-4.59,3a2.68,2.68,0,0,0,1.13,2.27,5,5,0,0,0,3.07.84A6.45,6.45,0,0,0,281,354.38Z" transform="translate(-131.85 -263.26)"></path><path class="cls-3" d="M319,335.48a11.73,11.73,0,0,1,4.61,4.63,15.28,15.28,0,0,1,0,13.89,11.8,11.8,0,0,1-4.61,4.63,13,13,0,0,1-6.51,1.65q-5.31,0-8.07-3.34v3h-7.12V324.47h7.45v12.46a9.93,9.93,0,0,1,7.74-3.1A13,13,0,0,1,319,335.48Zm-3.1,16.75a8.21,8.21,0,0,0,0-10.36,6.7,6.7,0,0,0-9.41,0,8.25,8.25,0,0,0,0,10.36,6.68,6.68,0,0,0,9.41,0Z" transform="translate(-131.85 -263.26)"></path><path class="cls-3" d="M335.16,358.58a12.56,12.56,0,0,1-5-4.7,13.77,13.77,0,0,1,0-13.65,12.59,12.59,0,0,1,5-4.71,16.48,16.48,0,0,1,14.54,0,12.64,12.64,0,0,1,5,4.71,13.77,13.77,0,0,1,0,13.65,12.61,12.61,0,0,1-5,4.7,16.39,16.39,0,0,1-14.54,0Zm12-6.35a8.21,8.21,0,0,0,0-10.36,6.18,6.18,0,0,0-4.7-1.93,6.28,6.28,0,0,0-4.73,1.93,8.14,8.14,0,0,0,0,10.36,6.29,6.29,0,0,0,4.73,1.94A6.19,6.19,0,0,0,347.14,352.23Z" transform="translate(-131.85 -263.26)"></path><path class="cls-3" d="M372.21,334.78a13.46,13.46,0,0,1,5.22-.95v6.87c-.82-.06-1.38-.09-1.67-.09a6.84,6.84,0,0,0-5,1.79,7.22,7.22,0,0,0-1.81,5.37V359.9h-7.45V334.21h7.11v3.39A8.29,8.29,0,0,1,372.21,334.78Z" transform="translate(-131.85 -263.26)"></path><path class="cls-3" d="M401.26,336.67q3.19,2.83,3.2,8.57V359.9h-7v-3.2q-2.1,3.58-7.83,3.58a12.3,12.3,0,0,1-5.14-1,7.65,7.65,0,0,1-3.31-2.77,7.18,7.18,0,0,1-1.15-4,6.7,6.7,0,0,1,2.7-5.64c1.8-1.36,4.57-2.05,8.33-2.05H397a4.75,4.75,0,0,0-1.48-3.75,6.56,6.56,0,0,0-4.44-1.31,13,13,0,0,0-4,.64,10.47,10.47,0,0,0-3.36,1.75L381,336.93a16.19,16.19,0,0,1,5-2.29,22.62,22.62,0,0,1,6-.81Q398.06,333.83,401.26,336.67Zm-6.35,17.71a4.83,4.83,0,0,0,2.1-2.6v-2.63H391.9c-3,0-4.58,1-4.58,3a2.67,2.67,0,0,0,1.12,2.27,5,5,0,0,0,3.08.84A6.5,6.5,0,0,0,394.91,354.38Z" transform="translate(-131.85 -263.26)"></path><path class="cls-3" d="M427.75,358.66a7.65,7.65,0,0,1-2.69,1.21,13.71,13.71,0,0,1-3.37.41c-3.05,0-5.42-.78-7.09-2.34s-2.5-3.85-2.5-6.88V340.51h-4v-5.73h4v-6.25h7.44v6.25h6.4v5.73h-6.4V351a3.51,3.51,0,0,0,.84,2.51,3.12,3.12,0,0,0,2.36.88,4.78,4.78,0,0,0,3-1Z" transform="translate(-131.85 -263.26)"></path><path class="cls-3" d="M436.09,358.58a12.56,12.56,0,0,1-5-4.7,13.77,13.77,0,0,1,0-13.65,12.59,12.59,0,0,1,5-4.71,16.46,16.46,0,0,1,14.53,0,12.6,12.6,0,0,1,5,4.71,13.77,13.77,0,0,1,0,13.65,12.57,12.57,0,0,1-5,4.7,16.37,16.37,0,0,1-14.53,0Zm12-6.35a8.21,8.21,0,0,0,0-10.36,6.2,6.2,0,0,0-4.7-1.93,6.28,6.28,0,0,0-4.73,1.93,8.14,8.14,0,0,0,0,10.36,6.29,6.29,0,0,0,4.73,1.94A6.21,6.21,0,0,0,448.07,352.23Z" transform="translate(-131.85 -263.26)"></path><path class="cls-3" d="M473.14,334.78a13.46,13.46,0,0,1,5.22-.95v6.87c-.82-.06-1.38-.09-1.67-.09a6.84,6.84,0,0,0-5,1.79,7.22,7.22,0,0,0-1.81,5.37V359.9h-7.45V334.21h7.11v3.39A8.29,8.29,0,0,1,473.14,334.78Z" transform="translate(-131.85 -263.26)"></path><path class="cls-3" d="M509.21,334.21,497.6,361.47a13.35,13.35,0,0,1-4.37,6.26,10.66,10.66,0,0,1-6.27,1.81,13.21,13.21,0,0,1-4-.62,8.79,8.79,0,0,1-3.2-1.72l2.73-5.3a6.4,6.4,0,0,0,2,1.2,6.33,6.33,0,0,0,2.22.43,4,4,0,0,0,2.48-.74,6.36,6.36,0,0,0,1.72-2.46l.09-.24-11.12-25.88h7.69l7.21,17.43L502,334.21Z" transform="translate(-131.85 -263.26)"></path></svg> 